<svg width="100" height="100" viewBox="0 0 100 100" fill="none" xmlns="http://www.w3.org/2000/svg">
<path d="M56.957 75.0054H39.925C39.5771 75.0055 39.2419 74.8746 38.9861 74.6388L28.6667 65.1471C28.4651 64.9619 28.3227 64.7212 28.2575 64.4553C28.1922 64.1894 28.207 63.9102 28.3 63.6527C30.3514 57.9652 31.7778 54.1749 32.5417 52.3874C33.0296 51.3272 33.8192 50.4344 34.8117 49.8205C35.8043 49.2067 36.9558 48.899 38.1222 48.936C38.3389 48.9179 38.5528 48.8999 38.7611 48.8735C39.9028 48.7457 41.0528 49.0013 42.0306 49.6013C44.4112 51.0888 47.1637 51.8736 49.9709 51.8651H51.3542C54.1668 51.8456 56.9213 51.0626 59.3236 49.5999C60.3022 49.0006 61.4528 48.745 62.5931 48.8735C62.8014 48.8999 63.0167 48.9179 63.232 48.936C65.5931 48.8527 67.7736 50.1846 68.782 52.3207C70.1903 55.6096 73.1153 63.704 75.3264 69.929C75.3934 70.118 75.4188 70.3191 75.4007 70.5188C75.3826 70.7184 75.3215 70.9118 75.2216 71.0855C75.1217 71.2593 74.9854 71.4094 74.822 71.5255C74.6586 71.6417 74.472 71.721 74.275 71.7582L57.2153 74.9804C57.1302 74.9969 57.0437 75.0053 56.957 75.0054V75.0054Z" fill="#1E6262"/>
<path d="M51.3584 70.671C49.7203 70.3818 48.0648 70.2017 46.4028 70.1321C46.871 72.3296 46.6821 74.6163 45.8598 76.7073C45.0374 78.7982 43.6179 80.6009 41.7781 81.8907C39.9383 83.1805 37.7597 83.9004 35.5136 83.9606C33.2676 84.0208 31.0535 83.4187 29.1472 82.2293C30.0724 84.5336 31.6359 86.5259 33.6542 87.9724C37.6807 90.9053 42.3462 92.8399 47.2667 93.6168C49.4153 94.0043 51.5931 94.2015 53.775 94.2071C62.3028 94.2071 68.8917 90.9738 69.8153 85.8001C70.9611 79.3654 62.8528 72.721 51.357 70.671H51.3584Z" fill="#B4F1F1"/>
<path d="M50.4486 70.3946C49.6701 70.3944 48.9109 70.1521 48.2763 69.7012C47.6417 69.2502 47.1632 68.613 46.9069 67.8779L45.8097 64.7182C45.4856 63.7799 45.5467 62.7515 45.9797 61.8582C46.4126 60.9649 47.1821 60.2798 48.1194 59.9529L60.0403 55.814C60.9781 55.4891 62.0066 55.5497 62.8998 55.9826C63.793 56.4154 64.4779 57.185 64.8042 58.1224L65.9014 61.2849C66.2259 62.2227 66.1651 63.251 65.7323 64.1442C65.2996 65.0373 64.5302 65.7222 63.593 66.0488L51.6722 70.1876C51.2791 70.3251 50.8667 70.3946 50.45 70.3946H50.4486Z" fill="white"/>
<path d="M46.2195 69.0043C47.7536 69.0043 48.9972 67.7606 48.9972 66.2265C48.9972 64.6924 47.7536 63.4487 46.2195 63.4487C44.6853 63.4487 43.4417 64.6924 43.4417 66.2265C43.4417 67.7606 44.6853 69.0043 46.2195 69.0043Z" fill="#F1B31C"/>
<path d="M35.1833 83.9862C32.9151 83.9862 30.6978 83.3135 28.8119 82.0534C26.9259 80.7932 25.456 79.002 24.5881 76.9064C23.7201 74.8108 23.4931 72.5049 23.9357 70.2803C24.3783 68.0557 25.4707 66.0123 27.0747 64.4085C28.6787 62.8047 30.7222 61.7126 32.9469 61.2702C35.1716 60.8279 37.4774 61.0552 39.5729 61.9234C41.6684 62.7916 43.4594 64.2617 44.7193 66.1478C45.9793 68.0339 46.6517 70.2513 46.6514 72.5195C46.6481 75.56 45.4388 78.475 43.2888 80.625C41.1389 82.7749 38.2238 83.9842 35.1833 83.9876V83.9862Z" fill="#FADCBC"/>
<path d="M77.8333 77.0417C77.8333 77.0417 76.6625 73.689 75.1347 69.3917C75.1124 69.3497 75.0878 69.3089 75.0611 69.2695C75.047 69.2228 75.0303 69.1769 75.0111 69.132C74.9861 69.0917 74.9458 69.0695 74.918 69.032C74.7586 68.8191 74.5397 68.6581 74.2889 68.5695C74.0339 68.4753 73.7564 68.4608 73.493 68.5278C73.4488 68.5321 73.4047 68.5386 73.3611 68.5473C73.3185 68.5699 73.2772 68.595 73.2375 68.6223C73.1913 68.636 73.1458 68.6522 73.1014 68.6709C70.8908 69.8031 68.4207 70.3325 65.9403 70.2056C64.2083 67.3959 62.4028 64.6945 61.4264 63.0015C61.1221 62.2971 60.562 61.7344 59.859 61.4269C59.1561 61.1194 58.3627 61.09 57.6389 61.3445C57.1701 61.5019 56.7388 61.7541 56.3718 62.0855C56.0048 62.4169 55.71 62.8204 55.5058 63.2707C55.3016 63.7211 55.1924 64.2087 55.1849 64.7031C55.1775 65.1976 55.272 65.6882 55.4625 66.1445C59.725 76.3584 65.9417 88.0917 71.9972 88.0917C72.4069 88.0917 72.8167 88.0362 73.2111 87.9292C73.2361 87.9223 73.2542 87.9028 73.2805 87.8945C73.3083 87.8848 73.3361 87.889 73.3639 87.8778C74.3671 87.5289 75.2879 86.9775 76.0692 86.2578C76.8504 85.5382 77.4755 84.6657 77.9055 83.6945C78.6826 81.5403 78.6565 79.1782 77.8319 77.0417H77.8333Z" fill="#FADCBC"/>
<path d="M45.2945 86.0235L32.8014 80.8846C32.7764 80.8749 32.7486 80.8791 32.7236 80.8707C32.7056 80.8638 32.6917 80.8485 32.6736 80.843C31.0934 80.3637 29.6819 79.4452 28.6037 78.1946C27.5254 76.9439 26.8247 75.4126 26.5833 73.7791C26.5677 73.7227 26.5482 73.6675 26.525 73.6138C26.5008 73.507 26.464 73.4035 26.4153 73.3054C26.366 73.2267 26.3087 73.1531 26.2445 73.086C26.1272 72.9169 25.958 72.7906 25.7625 72.7263C25.7231 72.7009 25.6823 72.6777 25.6403 72.6568C25.632 72.6541 25.6222 72.6568 25.6125 72.6541C25.5043 72.6278 25.3933 72.6152 25.282 72.6166C25.2065 72.6066 25.1303 72.6029 25.0542 72.6055C25.0389 72.6082 25.025 72.6013 25.0097 72.6041C24.9393 72.6228 24.8705 72.6474 24.8042 72.6777C24.7142 72.6999 24.6268 72.7311 24.5431 72.7707C24.3995 72.8733 24.264 72.9866 24.1375 73.1096C24.075 73.1957 24.0208 73.2902 23.9792 73.3888C23.9454 73.4399 23.9152 73.4932 23.8889 73.5485L23.8695 73.618L23.8653 73.6318C21.0528 82.3693 24.7792 85.1082 25.1847 85.3735C30.6969 88.7813 36.7237 91.2755 43.032 92.7596C43.9161 92.9877 44.8539 92.8695 45.6537 92.4291C46.4535 91.9886 47.0549 91.2593 47.3347 90.3902C47.6093 89.539 47.5515 88.6155 47.173 87.8052C46.7945 86.9949 46.1234 86.3579 45.2945 86.0221V86.0235Z" fill="#FADCBC"/>
<path d="M37.282 30.8432C37.3195 31.1973 37.3667 31.5515 37.4222 31.9084C38.8389 40.964 45.4153 47.4557 52.1111 46.4084C58.8069 45.3612 63.0833 37.1696 61.6667 28.114C59.2855 28.483 56.8484 28.1093 54.6873 27.0436C52.5261 25.9779 50.7459 24.2721 49.5889 22.1584C46.6292 25.8279 42.375 29.8057 37.2945 30.8432" fill="#FADCBC"/>
<path d="M49.0305 62.5766L60.9486 58.4391C60.997 58.4223 61.0467 58.4092 61.0972 58.4002C61.1347 58.3932 61.1639 58.3682 61.2 58.3585C61.3708 58.3085 61.5319 58.2307 61.675 58.1266C61.7516 58.0662 61.8214 57.9977 61.8833 57.9224C61.9336 57.867 61.9791 57.8076 62.0194 57.7446C62.0652 57.6635 62.1024 57.5778 62.1305 57.4891C62.1607 57.4122 62.1835 57.3327 62.1986 57.2516C62.2028 57.2224 62.2194 57.1988 62.2222 57.1696C62.4444 54.8821 62.5 52.5821 62.3889 50.2863C62.3536 50.1903 62.3362 50.0886 62.3375 49.9863C62.3188 49.9454 62.298 49.9055 62.275 49.8668C62.2052 49.6999 62.1064 49.5466 61.9833 49.4141C61.9267 49.3579 61.8654 49.3068 61.8 49.2613C61.7245 49.2054 61.6436 49.1575 61.5583 49.1182C61.3949 49.05 61.2212 49.0101 61.0444 49.0002C61.0014 49.0002 60.9611 48.9793 60.9194 48.9821C60.8715 48.9919 60.8242 49.0045 60.7778 49.0196C60.7253 49.0202 60.6729 49.024 60.6208 49.0307C60.1648 49.1614 59.7285 49.3529 59.3236 49.6002C56.9211 51.0624 54.1666 51.8449 51.3541 51.8641H49.9708C47.1636 51.8725 44.4112 51.0877 42.0305 49.6002C41.4803 49.2629 40.8716 49.0321 40.2361 48.9196C39.9318 48.8673 39.6187 48.9199 39.3482 49.0687C39.0777 49.2176 38.8658 49.454 38.7472 49.7391C38.7361 49.7599 38.7305 49.7835 38.7194 49.8057C38.6812 49.8817 38.6505 49.9613 38.6278 50.0432C38.6208 50.0793 38.6333 50.1127 38.6305 50.1502C38.6158 50.1957 38.6037 50.2421 38.5944 50.2891C38.2939 55.4231 38.9562 60.568 40.5472 65.4585L49.0305 62.5766V62.5766Z" fill="#FADCBC"/>
<path d="M69.1708 28.921C68.5889 16.3724 61.5792 8.83489 50.4111 8.75989H49.6055C38.1778 8.83628 31.1569 16.6391 30.8278 29.6696V57.0446C30.8278 57.0529 30.8319 57.0613 30.8333 57.0696C30.8418 57.1797 30.8637 57.2884 30.8986 57.3932C30.9097 57.4627 30.9264 57.5321 30.9472 57.6002C30.9889 57.6766 31.0375 57.7488 31.0916 57.8154C31.1375 57.8946 31.1889 57.9682 31.2486 58.0363C31.3028 58.0779 31.3597 58.1154 31.418 58.1502C31.506 58.2216 31.6026 58.2818 31.7055 58.3293C31.7139 58.3321 31.7194 58.3404 31.7264 58.3432C31.9061 58.4134 32.0992 58.443 32.2917 58.4301C32.4842 58.4171 32.6715 58.3618 32.8403 58.2682C32.9402 58.2174 33.0335 58.1544 33.118 58.0807C33.159 58.0469 33.198 58.0108 33.2347 57.9724C33.3153 57.8819 33.3835 57.781 33.4375 57.6724C33.4569 57.6335 33.4847 57.6002 33.5014 57.5585C33.5055 57.5502 33.5125 57.5432 33.5153 57.5335C34.2097 55.6946 34.7444 54.3293 35.0778 53.5446C35.8736 51.921 36.8694 51.8363 38.3736 51.7043C38.6208 51.6821 38.8639 51.6627 39.1 51.6349C39.6226 51.575 40.1501 51.6945 40.5958 51.9738C43.4222 53.7292 46.6853 54.6543 50.0125 54.6432H51.3361C54.6722 54.6529 57.9444 53.7266 60.7819 51.9724C61.2278 51.6946 61.7542 51.5738 62.2764 51.6335C62.5139 51.6613 62.7569 51.6821 63.0042 51.7029C64.5097 51.8349 65.5042 51.921 66.268 53.4724L66.4972 54.0252L66.5028 54.0307C66.5728 54.2002 66.6757 54.354 66.8055 54.4835C66.8167 54.4946 66.8333 54.4988 66.8444 54.5099C67.0986 54.746 67.4305 54.8793 67.7778 54.8849L67.7833 54.8877C67.9583 54.8516 68.1347 54.8168 68.3111 54.7835L68.3167 54.7793C68.485 54.7095 68.638 54.607 68.7667 54.4779C68.7957 54.4402 68.8226 54.4007 68.8472 54.3599C68.9345 54.2624 69.0075 54.153 69.0639 54.0349C69.1333 53.8682 69.1708 53.6877 69.1708 53.5043L69.1722 53.4988V28.921H69.1708ZM52.1111 46.4071C45.4167 47.4557 38.8389 40.9627 37.4222 31.9071C37.3667 31.5516 37.3194 31.1974 37.2819 30.8432H37.2944C42.375 29.8057 46.6278 25.8293 49.5889 22.1585C50.7458 24.2722 52.5261 25.978 54.6872 27.0436C56.8484 28.1093 59.2855 28.4831 61.6667 28.1141C63.0833 37.1696 58.8055 45.3613 52.1111 46.4085V46.4071Z" fill="#A57939"/>
<path d="M37.282 30.8432C37.3195 31.1973 37.3667 31.5515 37.4223 31.9084C38.8389 40.964 45.4153 47.4557 52.1111 46.4084C58.807 45.3612 63.0834 37.1696 61.6667 28.114C59.2855 28.483 56.8484 28.1093 54.6873 27.0436C52.5261 25.9779 50.7459 24.2721 49.5889 22.1584C46.6292 25.8279 42.375 29.8057 37.2945 30.8432" stroke="black" stroke-width="0.5" stroke-linecap="round" stroke-linejoin="round"/>
<path d="M67.7709 52.9321V28.9863C67.3264 19.3918 62.6334 10.2321 50.3986 10.1501H49.6014C37.0764 10.2335 32.4542 19.8321 32.2042 29.671V46.514" stroke="black" stroke-width="0.5" stroke-linecap="round" stroke-linejoin="round"/>
<path d="M60.8403 57.0363C61.0542 54.821 61.1083 52.5919 61.0014 50.3696" stroke="black" stroke-width="0.5" stroke-linecap="round" stroke-linejoin="round"/>
<path d="M39.9792 50.3683C39.7014 55.3086 40.3333 60.2572 41.8472 64.9683" stroke="black" stroke-width="0.5" stroke-linecap="round" stroke-linejoin="round"/>
<path d="M29.6042 64.125C31.3167 59.3806 32.957 54.9486 33.8195 52.932C35.1292 50.2611 37.1972 50.4597 38.925 50.2542C39.7562 50.159 40.5952 50.3464 41.307 50.7861C43.9192 52.4002 46.9293 53.2549 50 53.2542H51.3542C54.4236 53.2542 57.4347 52.4 60.0472 50.7861C60.7586 50.3467 61.5971 50.1593 62.4278 50.2542C64.157 50.4597 66.2236 50.2611 67.5347 52.932C69.8264 58.2931 76.5209 77.5 76.5209 77.5C76.5209 77.5 79.25 84 72.882 86.5736L72.8472 86.5875C66.7389 88.2417 59.1334 71.3611 56.6667 65.4278" stroke="black" stroke-width="0.5" stroke-linecap="round" stroke-linejoin="round"/>
<path d="M35.1834 82.5986C40.7499 82.5986 45.2625 78.086 45.2625 72.5195C45.2625 66.9529 40.7499 62.4403 35.1834 62.4403C29.6168 62.4403 25.1042 66.9529 25.1042 72.5195C25.1042 78.086 29.6168 82.5986 35.1834 82.5986Z" stroke="black" stroke-width="0.5" stroke-linecap="round" stroke-linejoin="round"/>
<path d="M25.9722 84.2306C31.465 87.6032 37.4691 90.0611 43.75 91.5084" stroke="black" stroke-width="0.5" stroke-linecap="round" stroke-linejoin="round"/>
<path d="M57.2417 66.7836L51.2167 68.8753C50.6266 69.0784 49.98 69.0397 49.4183 68.7674C48.8566 68.4952 48.4256 68.0116 48.2195 67.4225L47.1223 64.2614C46.9195 63.6714 46.9585 63.0251 47.2307 62.4638C47.5029 61.9025 47.9862 61.4717 48.5751 61.2655L60.4959 57.1266C61.0861 56.9235 61.7327 56.9622 62.2943 57.2345C62.856 57.5067 63.287 57.9903 63.4931 58.5794L64.5903 61.7405" stroke="black" stroke-width="0.5" stroke-linecap="round" stroke-linejoin="round"/>
<path d="M45.2111 71.5C47.1903 71.5236 49.1653 71.7125 51.1139 72.0625C54.7815 72.6815 58.3165 73.922 61.5667 75.7306" stroke="black" stroke-width="0.5" stroke-linecap="round" stroke-linejoin="round"/>
<path d="M64.6625 70.8157C66.6755 74.1359 68.9656 77.2799 71.5083 80.2143" stroke="black" stroke-width="0.5" stroke-linecap="round" stroke-linejoin="round"/>
<path d="M43.5084 66.8362C43.4028 66.3647 43.4219 65.8738 43.5639 65.4119C43.7058 64.95 43.9657 64.533 44.3179 64.2022C44.67 63.8713 45.1024 63.6379 45.5722 63.525C46.0421 63.4122 46.5332 63.4237 46.9973 63.5585" stroke="black" stroke-width="0.5" stroke-linecap="round" stroke-linejoin="round"/>
<path d="M48.4445 67.8907C48.2103 68.2041 47.9127 68.4644 47.5709 68.6548C47.2292 68.8451 46.8511 68.9611 46.4614 68.9952C46.0718 69.0293 45.6793 68.9807 45.3097 68.8526C44.9401 68.7245 44.6017 68.5198 44.3167 68.2519" stroke="black" stroke-width="0.5" stroke-linecap="round" stroke-linejoin="round"/>
</svg>
